<svg version="1.1" xmlns="http://www.w3.org/2000/svg" xmlns:xlink="http://www.w3.org/1999/xlink" viewBox="0 0 36.1124 29.8975"><g><rect height="29.8975" opacity="0" width="36.1124" x="0" y="0"/><path d="M34.7041 12.5098L27.9805 12.5098C26.9405 12.5098 26.6768 13.2129 27.2334 14.0186L30.5147 18.6914C30.9834 19.3652 31.6865 19.3799 32.1699 18.6914L35.4512 14.0332C36.0225 13.2129 35.7442 12.5098 34.7041 12.5098ZM17.8731 2.49023C24.7578 2.49023 30.3242 8.05664 30.3242 14.9414C30.3242 15.6152 30.8809 16.1719 31.584 16.1719C32.2578 16.1719 32.7998 15.6299 32.8145 14.9561C32.7998 6.67969 26.1201 0 17.8731 0C13.4785 0 9.49416 1.9043 6.75491 4.96582C6.15432 5.625 6.3594 6.48926 6.91604 6.87012C7.38479 7.22168 8.01467 7.25098 8.62991 6.5918C10.9151 4.05762 14.211 2.49023 17.8731 2.49023ZM1.04202 17.373L7.76565 17.373C8.80569 17.373 9.06936 16.6553 8.51272 15.8643L5.23147 11.1768C4.76272 10.5176 4.05959 10.5029 3.5762 11.1768L0.294945 15.8496C-0.276344 16.6553-0.012672 17.373 1.04202 17.373ZM17.8731 27.3926C10.9883 27.3926 5.4219 21.8262 5.4219 14.9414C5.4219 14.2676 4.85061 13.6963 4.16213 13.6963C3.4883 13.6963 2.94631 14.2529 2.93166 14.9268C2.94631 23.2031 9.626 29.8828 17.8731 29.8828C22.2676 29.8828 26.252 27.9785 28.9912 24.917C29.5918 24.2432 29.3867 23.3936 28.8301 22.998C28.3614 22.6611 27.7315 22.6318 27.1162 23.2764C24.8311 25.8105 21.5352 27.3926 17.8731 27.3926Z" fill="red" fill-opacity="0.85"/></g></svg>